<?xml version="1.0" encoding="UTF-8"?>
<svg id="Layer_1" data-name="Layer 1" xmlns="http://www.w3.org/2000/svg" version="1.1" viewBox="0 0 1280 1280">
  <defs>
    <style>
      .cls-1 {
        fill: #000;
        opacity: .5;
        stroke-width: 0px;
      }
    </style>
  </defs>
  <path class="cls-1" d="M0,4.5c0,2.5.4,4.5.8,4.5C1.8,9,9,1.7,9,.7S7,0,4.5,0H0v4.5Z"/>
  <path class="cls-1" d="M119,.8c0,1.4,7.5,8.2,9.1,8.2s8.9-6.9,8.9-8.3S133,0,128,0s-9,.4-9,.8Z"/>
  <path class="cls-1" d="M247,.8c0,1.4,7.5,8.2,9.1,8.2s8.9-6.9,8.9-8.3S261,0,256,0s-9,.4-9,.8Z"/>
  <path class="cls-1" d="M375,.8c0,1.4,7.5,8.2,9.1,8.2s8.9-6.9,8.9-8.3S389,0,384,0s-9,.4-9,.8Z"/>
  <path class="cls-1" d="M503,.8c0,1.4,7.5,8.2,9.1,8.2s8.9-6.9,8.9-8.3S517,0,512,0s-9,.4-9,.8Z"/>
  <path class="cls-1" d="M631,.8c0,1.4,7.5,8.2,9.1,8.2s8.9-6.9,8.9-8.3S645,0,640,0s-9,.4-9,.8Z"/>
  <path class="cls-1" d="M759,.8c0,1.4,7.5,8.2,9.1,8.2s8.9-6.9,8.9-8.3S773,0,768,0s-9,.4-9,.8Z"/>
  <path class="cls-1" d="M887,.8c0,1.4,7.5,8.2,9.1,8.2s8.9-6.9,8.9-8.3S901,0,896,0s-9,.4-9,.8Z"/>
  <path class="cls-1" d="M1015,.8c0,1.4,7.5,8.2,9.1,8.2s8.9-6.9,8.9-8.3S1029,0,1024,0s-9,.4-9,.8Z"/>
  <path class="cls-1" d="M1143,.8c0,1.4,7.5,8.2,9.1,8.2s8.9-6.9,8.9-8.3S1157,0,1152,0s-9,.4-9,.8Z"/>
  <path class="cls-1" d="M1271,.8c0,1,7.3,8.2,8.3,8.2s.7-2,.7-4.5V0h-4.5c-2.5,0-4.5.4-4.5.8Z"/>
  <path class="cls-1" d="M58.2,58.3c-2.3,2.3-4.2,4.9-4.2,5.7,0,1.9,8,10,9.9,10s10.1-8,10.1-9.9-8-10.1-10-10.1-3.5,1.9-5.8,4.3Z"/>
  <path class="cls-1" d="M186.2,58.3c-2.3,2.3-4.2,4.9-4.2,5.7,0,1.9,8,10,9.9,10s10.1-8,10.1-9.9-8-10.1-10-10.1-3.5,1.9-5.8,4.3Z"/>
  <path class="cls-1" d="M314.2,58.3c-2.3,2.3-4.2,4.9-4.2,5.7,0,1.9,8,10,9.9,10s10.1-8,10.1-9.9-8-10.1-10-10.1-3.5,1.9-5.8,4.3Z"/>
  <path class="cls-1" d="M442.2,58.3c-2.3,2.3-4.2,4.9-4.2,5.7,0,1.9,8,10,9.9,10s10.1-8,10.1-9.9-8-10.1-10-10.1-3.5,1.9-5.8,4.3Z"/>
  <path class="cls-1" d="M570.2,58.3c-2.3,2.3-4.2,4.9-4.2,5.7,0,1.9,8,10,9.9,10s10.1-8,10.1-9.9-8-10.1-10-10.1-3.5,1.9-5.8,4.3Z"/>
  <path class="cls-1" d="M698.2,58.3c-2.3,2.3-4.2,4.9-4.2,5.7,0,1.9,8,10,9.9,10s10.1-8,10.1-9.9-8-10.1-10-10.1-3.5,1.9-5.8,4.3Z"/>
  <path class="cls-1" d="M826.2,58.3c-2.3,2.3-4.2,4.9-4.2,5.7,0,1.9,8,10,9.9,10s10.1-8,10.1-9.9-8-10.1-10-10.1-3.5,1.9-5.8,4.3Z"/>
  <path class="cls-1" d="M954.2,58.3c-2.3,2.3-4.2,4.9-4.2,5.7,0,1.9,8,10,9.9,10s10.1-8,10.1-9.9-8-10.1-10-10.1-3.5,1.9-5.8,4.3Z"/>
  <path class="cls-1" d="M1082.2,58.3c-2.3,2.3-4.2,4.9-4.2,5.7,0,1.9,8,10,9.9,10s10.1-8,10.1-9.9-8-10.1-10-10.1-3.5,1.9-5.8,4.3Z"/>
  <path class="cls-1" d="M1210.2,58.3c-2.3,2.3-4.2,4.9-4.2,5.7,0,1.9,8,10,9.9,10s10.1-8,10.1-9.9-8-10.1-10-10.1-3.5,1.9-5.8,4.3Z"/>
  <path class="cls-1" d="M0,128c0,13.2.1,14,1.8,13.1,2.5-1.3,12.2-11.8,12.2-13.1s-9.7-11.8-12.2-13.1c-1.7-.9-1.8-.1-1.8,13.1Z"/>
  <path class="cls-1" d="M120.3,120.3c-3.4,3.5-6.3,7-6.3,7.7,0,1.7,12.3,14,14,14s14-12.3,14-14-12.3-14-14-14-4.2,2.8-7.7,6.3Z"/>
  <path class="cls-1" d="M248.3,120.3c-3.4,3.5-6.3,7-6.3,7.7,0,1.7,12.3,14,14,14s14-12.3,14-14-12.3-14-14-14-4.2,2.8-7.7,6.3Z"/>
  <path class="cls-1" d="M376.3,120.3c-3.4,3.5-6.3,7-6.3,7.7,0,1.7,12.3,14,14,14s14-12.3,14-14-12.3-14-14-14-4.2,2.8-7.7,6.3Z"/>
  <path class="cls-1" d="M504.3,120.3c-3.4,3.5-6.3,7-6.3,7.7,0,1.7,12.3,14,14,14s14-12.3,14-14-12.3-14-14-14-4.2,2.8-7.7,6.3Z"/>
  <path class="cls-1" d="M632.3,120.3c-3.4,3.5-6.3,7-6.3,7.7,0,1.7,12.3,14,14,14s14-12.3,14-14-12.3-14-14-14-4.2,2.8-7.7,6.3Z"/>
  <path class="cls-1" d="M760.3,120.3c-3.4,3.5-6.3,7-6.3,7.7,0,1.7,12.3,14,14,14s14-12.3,14-14-12.3-14-14-14-4.2,2.8-7.7,6.3Z"/>
  <path class="cls-1" d="M888.3,120.3c-3.4,3.5-6.3,7-6.3,7.7,0,1.7,12.3,14,14,14s14-12.3,14-14-12.3-14-14-14-4.2,2.8-7.7,6.3Z"/>
  <path class="cls-1" d="M1016.3,120.3c-3.4,3.5-6.3,7-6.3,7.7,0,1.7,12.3,14,14,14s4.2-2.9,7.7-6.3c3.5-3.5,6.3-7,6.3-7.7s-2.8-4.2-6.3-7.7-7-6.3-7.7-6.3-4.2,2.8-7.7,6.3Z"/>
  <path class="cls-1" d="M1144.3,120.3c-3.4,3.5-6.3,7-6.3,7.7s2.9,4.2,6.3,7.7c3.5,3.4,7,6.3,7.7,6.3s4.2-2.9,7.7-6.3c3.5-3.5,6.3-7,6.3-7.7s-2.8-4.2-6.3-7.7-7-6.3-7.7-6.3-4.2,2.8-7.7,6.3Z"/>
  <path class="cls-1" d="M1272.8,120.1c-3.8,3.6-6.8,7.2-6.8,7.9s3,4.3,6.8,7.9l6.7,6.6.3-7.3c.2-3.9.2-10.5,0-14.5l-.3-7.2-6.7,6.6Z"/>
  <path class="cls-1" d="M55.7,183.8c-7.4,7.5-7.4,9.1.1,16.5s9.1,7.4,16.5-.1,7.4-9.1-.1-16.5-9.1-7.4-16.5.1Z"/>
  <path class="cls-1" d="M183.7,183.8c-7.4,7.5-7.4,9.1.1,16.5s9.1,7.4,16.5-.1,7.4-9.1-.1-16.5-9.1-7.4-16.5.1Z"/>
  <path class="cls-1" d="M311.7,183.8c-7.4,7.5-7.4,9.1.1,16.5s9.1,7.4,16.5-.1,7.4-9.1-.1-16.5-9.1-7.4-16.5.1Z"/>
  <path class="cls-1" d="M439.7,183.8c-7.4,7.5-7.4,9.1.1,16.5s9.1,7.4,16.5-.1,7.4-9.1-.1-16.5-9.1-7.4-16.5.1Z"/>
  <path class="cls-1" d="M567.7,183.8c-7.4,7.5-7.4,9.1.1,16.5s9.1,7.4,16.5-.1,7.4-9.1-.1-16.5-9.1-7.4-16.5.1Z"/>
  <path class="cls-1" d="M695.7,183.8c-7.4,7.5-7.4,9.1.1,16.5s9.1,7.4,16.5-.1,7.4-9.1-.1-16.5-9.1-7.4-16.5.1Z"/>
  <path class="cls-1" d="M823.7,183.8c-7.4,7.5-7.4,9.1.1,16.5s9.1,7.4,16.5-.1,7.4-9.1-.1-16.5-9.1-7.4-16.5.1Z"/>
  <path class="cls-1" d="M951.7,183.8c-7.4,7.5-7.4,9.1.1,16.5s9.1,7.4,16.5-.1,7.4-9.1-.1-16.5-9.1-7.4-16.5.1Z"/>
  <path class="cls-1" d="M1079.7,183.8c-7.4,7.5-7.4,9.1.1,16.5s9.1,7.4,16.5-.1,7.4-9.1-.1-16.5-9.1-7.4-16.5.1Z"/>
  <path class="cls-1" d="M1207.7,183.8c-7.4,7.5-7.4,9.1.1,16.5s9.1,7.4,16.5-.1,7.4-9.1-.1-16.5-9.1-7.4-16.5.1Z"/>
  <path class="cls-1" d="M0,256c0,13.9.3,18,1.3,18s4.7-3.5,9-7.8,7.7-8.5,7.7-10.2-2.2-4.7-7.8-10.3-8.3-7.7-9-7.7-1.2,4.4-1.2,18Z"/>
  <path class="cls-1" d="M117.7,245.8c-5.5,5.5-7.7,8.5-7.7,10.2,0,3.6,14.5,18,18,18s18-14.5,18-18-14.5-18-18-18-4.7,2.2-10.3,7.8Z"/>
  <path class="cls-1" d="M245.7,245.8c-5.5,5.5-7.7,8.5-7.7,10.2,0,3.6,14.5,18,18,18s18-14.5,18-18-14.5-18-18-18-4.7,2.2-10.3,7.8Z"/>
  <path class="cls-1" d="M373.7,245.8c-5.5,5.5-7.7,8.5-7.7,10.2,0,3.6,14.5,18,18,18s18-14.5,18-18-14.5-18-18-18-4.7,2.2-10.3,7.8Z"/>
  <path class="cls-1" d="M501.7,245.8c-5.5,5.5-7.7,8.5-7.7,10.2,0,3.6,14.5,18,18,18s18-14.5,18-18-14.5-18-18-18-4.7,2.2-10.3,7.8Z"/>
  <path class="cls-1" d="M629.7,245.8c-5.5,5.5-7.7,8.5-7.7,10.2,0,3.6,14.5,18,18,18s18-14.5,18-18-14.5-18-18-18-4.7,2.2-10.3,7.8Z"/>
  <path class="cls-1" d="M757.7,245.8c-5.5,5.5-7.7,8.5-7.7,10.2,0,3.6,14.5,18,18,18s18-14.5,18-18-14.5-18-18-18-4.7,2.2-10.3,7.8Z"/>
  <path class="cls-1" d="M885.7,245.8c-5.5,5.5-7.7,8.5-7.7,10.2,0,3.6,14.5,18,18,18s18-14.5,18-18-14.5-18-18-18-4.7,2.2-10.3,7.8Z"/>
  <path class="cls-1" d="M1013.7,245.8c-5.5,5.5-7.7,8.5-7.7,10.2,0,3.6,14.5,18,18,18s18-14.5,18-18-14.5-18-18-18-4.7,2.2-10.3,7.8Z"/>
  <path class="cls-1" d="M1141.7,245.8c-5.5,5.5-7.7,8.5-7.7,10.2,0,3.6,14.5,18,18,18s18-14.5,18-18-14.5-18-18-18-4.7,2.2-10.3,7.8Z"/>
  <path class="cls-1" d="M1269.7,245.8c-5.5,5.5-7.7,8.5-7.7,10.2s2.2,4.7,7.8,10.3,8.3,7.7,9,7.7,1.2-4.4,1.2-18-.3-18-1.3-18-4.7,3.5-9,7.8Z"/>
  <path class="cls-1" d="M53.8,309.8c-4.8,4.9-8.8,9.4-8.8,10.2,0,1.8,17.2,19,19,19s19-17.2,19-19-17.2-19-19-19-5.3,4-10.2,8.8Z"/>
  <path class="cls-1" d="M181.8,309.8c-4.8,4.9-8.8,9.4-8.8,10.2,0,1.8,17.2,19,19,19s19-17.2,19-19-17.2-19-19-19-5.3,4-10.2,8.8Z"/>
  <path class="cls-1" d="M309.8,309.8c-4.8,4.9-8.8,9.4-8.8,10.2,0,1.8,17.2,19,19,19s19-17.2,19-19-17.2-19-19-19-5.3,4-10.2,8.8Z"/>
  <path class="cls-1" d="M437.8,309.8c-4.8,4.9-8.8,9.4-8.8,10.2,0,1.8,17.2,19,19,19s19-17.2,19-19-17.2-19-19-19-5.3,4-10.2,8.8Z"/>
  <path class="cls-1" d="M565.8,309.8c-4.8,4.9-8.8,9.4-8.8,10.2s4,5.3,8.8,10.2c4.9,4.8,9.4,8.8,10.2,8.8,1.8,0,19-17.2,19-19s-4-5.3-8.8-10.2c-4.9-4.8-9.4-8.8-10.2-8.8s-5.3,4-10.2,8.8Z"/>
  <path class="cls-1" d="M693.8,309.8c-4.8,4.9-8.8,9.4-8.8,10.2s4,5.3,8.8,10.2c4.9,4.8,9.4,8.8,10.2,8.8,1.8,0,19-17.2,19-19s-4-5.3-8.8-10.2c-4.9-4.8-9.4-8.8-10.2-8.8s-5.3,4-10.2,8.8Z"/>
  <path class="cls-1" d="M821.8,309.8c-4.8,4.9-8.8,9.4-8.8,10.2s4,5.3,8.8,10.2c4.9,4.8,9.4,8.8,10.2,8.8,1.8,0,19-17.2,19-19s-4-5.3-8.8-10.2c-4.9-4.8-9.4-8.8-10.2-8.8s-5.3,4-10.2,8.8Z"/>
  <path class="cls-1" d="M949.8,309.8c-4.8,4.9-8.8,9.4-8.8,10.2s4,5.3,8.8,10.2c4.9,4.8,9.4,8.8,10.2,8.8,1.8,0,19-17.2,19-19s-4-5.3-8.8-10.2c-4.9-4.8-9.4-8.8-10.2-8.8s-5.3,4-10.2,8.8Z"/>
  <path class="cls-1" d="M1077.8,309.8c-4.8,4.9-8.8,9.4-8.8,10.2,0,1.8,17.2,19,19,19s19-17.2,19-19-17.2-19-19-19-5.3,4-10.2,8.8Z"/>
  <path class="cls-1" d="M1205.8,309.8c-4.8,4.9-8.8,9.4-8.8,10.2,0,1.8,17.2,19,19,19s19-17.2,19-19-17.2-19-19-19-5.3,4-10.2,8.8Z"/>
  <path class="cls-1" d="M0,384c0,17.2.3,23,1.2,23s5.8-4.6,11.5-10.3,10.3-11,10.3-12.7-3-5.4-10.3-12.7-10.8-10.3-11.5-10.3-1.2,5.8-1.2,23Z"/>
  <path class="cls-1" d="M115.3,371.3c-7.3,7.3-10.3,11-10.3,12.7,0,3.4,19.6,23,23,23s23-19.6,23-23-19.6-23-23-23-5.4,3-12.7,10.3Z"/>
  <path class="cls-1" d="M243.3,371.3c-7.3,7.3-10.3,11-10.3,12.7,0,3.4,19.6,23,23,23s23-19.6,23-23-19.6-23-23-23-5.4,3-12.7,10.3Z"/>
  <path class="cls-1" d="M371.3,371.3c-7.3,7.3-10.3,11-10.3,12.7,0,3.4,19.6,23,23,23s23-19.6,23-23-19.6-23-23-23-5.4,3-12.7,10.3Z"/>
  <path class="cls-1" d="M499.3,371.3c-7.3,7.3-10.3,11-10.3,12.7,0,3.4,19.6,23,23,23s5.4-3,12.7-10.3,10.3-11,10.3-12.7-3-5.4-10.3-12.7-11-10.3-12.7-10.3-5.4,3-12.7,10.3Z"/>
  <path class="cls-1" d="M627.3,371.3c-7.3,7.3-10.3,11-10.3,12.7s3,5.4,10.3,12.7,11,10.3,12.7,10.3,5.4-3,12.7-10.3,10.3-11,10.3-12.7-3-5.4-10.3-12.7-11-10.3-12.7-10.3-5.4,3-12.7,10.3Z"/>
  <path class="cls-1" d="M755.3,371.3c-7.3,7.3-10.3,11-10.3,12.7s3,5.4,10.3,12.7,11,10.3,12.7,10.3,5.4-3,12.7-10.3,10.3-11,10.3-12.7-3-5.4-10.3-12.7-11-10.3-12.7-10.3-5.4,3-12.7,10.3Z"/>
  <path class="cls-1" d="M883.3,371.3c-7.3,7.3-10.3,11-10.3,12.7s3,5.4,10.3,12.7,11,10.3,12.7,10.3,5.4-3,12.7-10.3,10.3-11,10.3-12.7-3-5.4-10.3-12.7-11-10.3-12.7-10.3-5.4,3-12.7,10.3Z"/>
  <path class="cls-1" d="M1011.3,371.3c-7.3,7.3-10.3,11-10.3,12.7s3,5.4,10.3,12.7,11,10.3,12.7,10.3c3.4,0,23-19.6,23-23s-19.6-23-23-23-5.4,3-12.7,10.3Z"/>
  <path class="cls-1" d="M1139.3,371.3c-7.3,7.3-10.3,11-10.3,12.7,0,3.4,19.6,23,23,23s23-19.6,23-23-19.6-23-23-23-5.4,3-12.7,10.3Z"/>
  <path class="cls-1" d="M1267.3,371.3c-7.3,7.3-10.3,11-10.3,12.7s3,5.4,10.3,12.7,10.8,10.3,11.5,10.3,1.2-5.8,1.2-23-.3-23-1.2-23-5.8,4.6-11.5,10.3Z"/>
  <path class="cls-1" d="M51.3,435.3c-7.3,7.3-10.3,11-10.3,12.7,0,3.4,19.6,23,23,23s23-19.6,23-23-19.6-23-23-23-5.4,3-12.7,10.3Z"/>
  <path class="cls-1" d="M179.3,435.3c-7.3,7.3-10.3,11-10.3,12.7,0,3.4,19.6,23,23,23s23-19.6,23-23-19.6-23-23-23-5.4,3-12.7,10.3Z"/>
  <path class="cls-1" d="M307.3,435.3c-7.3,7.3-10.3,11-10.3,12.7,0,3.4,19.6,23,23,23s23-19.6,23-23-19.6-23-23-23-5.4,3-12.7,10.3Z"/>
  <path class="cls-1" d="M435.3,435.3c-7.3,7.3-10.3,11-10.3,12.7,0,3.4,19.6,23,23,23s23-19.6,23-23-19.6-23-23-23-5.4,3-12.7,10.3Z"/>
  <path class="cls-1" d="M563.3,435.3c-7.3,7.3-10.3,11-10.3,12.7s3,5.4,10.3,12.7,11,10.3,12.7,10.3,5.4-3,12.7-10.3,10.3-11,10.3-12.7-3-5.4-10.3-12.7-11-10.3-12.7-10.3-5.4,3-12.7,10.3Z"/>
  <path class="cls-1" d="M691.3,435.3c-7.3,7.3-10.3,11-10.3,12.7s3,5.4,10.3,12.7,11,10.3,12.7,10.3,5.4-3,12.7-10.3,10.3-11,10.3-12.7-3-5.4-10.3-12.7-11-10.3-12.7-10.3-5.4,3-12.7,10.3Z"/>
  <path class="cls-1" d="M819.3,435.3c-7.3,7.3-10.3,11-10.3,12.7s3,5.4,10.3,12.7,11,10.3,12.7,10.3,5.4-3,12.7-10.3,10.3-11,10.3-12.7-3-5.4-10.3-12.7-11-10.3-12.7-10.3-5.4,3-12.7,10.3Z"/>
  <path class="cls-1" d="M947.3,435.3c-7.3,7.3-10.3,11-10.3,12.7s3,5.4,10.3,12.7,11,10.3,12.7,10.3,5.4-3,12.7-10.3,10.3-11,10.3-12.7-3-5.4-10.3-12.7-11-10.3-12.7-10.3-5.4,3-12.7,10.3Z"/>
  <path class="cls-1" d="M1075.3,435.3c-7.3,7.3-10.3,11-10.3,12.7,0,3.4,19.6,23,23,23s23-19.6,23-23-19.6-23-23-23-5.4,3-12.7,10.3Z"/>
  <path class="cls-1" d="M1203.3,435.3c-7.3,7.3-10.3,11-10.3,12.7,0,3.4,19.6,23,23,23s23-19.6,23-23-19.6-23-23-23-5.4,3-12.7,10.3Z"/>
  <path class="cls-1" d="M0,512c0,26.5.1,27.8,1.8,27.3,1.1-.2,7.2-5.8,13.7-12.3,15.6-15.6,15.6-14.4,0-30s-12.6-12.1-13.7-12.3c-1.7-.5-1.8.8-1.8,27.3Z"/>
  <path class="cls-1" d="M125.5,485c-1.1.5-7.1,6-13.4,12.3-15.1,15.3-15.2,14.1.7,29.9,15.9,16,14.5,16,30.4,0,15.9-15.9,15.9-14.6.2-30.2-6.5-6.5-12.8-12-13.9-12.3s-2.9-.2-4,.3Z"/>
  <path class="cls-1" d="M253.5,485c-1.1.5-7.1,6-13.4,12.3-15.1,15.3-15.2,14.1.7,29.9,15.9,16,14.5,16,30.4,0,15.9-15.9,15.9-14.6.2-30.2-6.5-6.5-12.8-12-13.9-12.3s-2.9-.2-4,.3Z"/>
  <path class="cls-1" d="M381.5,485c-1.1.5-7.1,6-13.4,12.3-15.1,15.3-15.2,14.1.7,29.9,15.9,16,14.5,16,30.4,0,15.9-15.9,15.9-14.6.2-30.2-6.5-6.5-12.8-12-13.9-12.3s-2.9-.2-4,.3Z"/>
  <path class="cls-1" d="M509.5,485c-1.1.5-7.1,6-13.4,12.3-15.1,15.3-15.2,14.1.7,29.9,15.9,16,14.5,16,30.4,0,15.9-15.9,15.9-14.6.2-30.2-6.5-6.5-12.8-12-13.9-12.3s-2.9-.2-4,.3Z"/>
  <path class="cls-1" d="M637.5,485c-1.1.5-7.1,6-13.4,12.3-15.1,15.3-15.2,14.1.7,29.9,15.9,16,14.5,16,30.4,0,15.9-15.9,15.9-14.6.2-30.2-6.5-6.5-12.8-12-13.9-12.3s-2.9-.2-4,.3Z"/>
  <path class="cls-1" d="M765.5,485c-1.1.5-7.1,6-13.4,12.3-15.1,15.3-15.2,14.1.7,29.9,15.9,16,14.5,16,30.4,0,15.9-15.9,15.9-14.6.2-30.2-6.5-6.5-12.8-12-13.9-12.3s-2.9-.2-4,.3Z"/>
  <path class="cls-1" d="M893.5,485c-1.1.5-7.1,6-13.4,12.3-15.1,15.3-15.2,14.1.7,29.9,15.9,16,14.5,16,30.4,0,15.9-15.9,15.9-14.6.2-30.2-6.5-6.5-12.8-12-13.9-12.3s-2.9-.2-4,.3Z"/>
  <path class="cls-1" d="M1021.5,485c-1.1.5-7.1,6-13.4,12.3-15.1,15.3-15.2,14.1.7,29.9,15.9,16,14.5,16,30.4,0,15.9-15.9,15.9-14.6.2-30.2-6.5-6.5-12.8-12-13.9-12.3s-2.9-.2-4,.3Z"/>
  <path class="cls-1" d="M1149.5,485c-1.1.5-7.1,6-13.4,12.3-15.1,15.3-15.2,14.1.7,29.9,15.9,16,14.5,16,30.4,0,15.9-15.9,15.9-14.6.2-30.2-6.5-6.5-12.8-12-13.9-12.3s-2.9-.2-4,.3Z"/>
  <path class="cls-1" d="M1277.5,485c-1.1.4-7.1,6-13.4,12.3-15.1,15.3-15.1,14.1.4,29.7,6.5,6.5,12.6,12.1,13.7,12.3,1.7.5,1.8-.8,1.8-27.4s-.1-27.9-.2-27.8c-.2,0-1.2.4-2.3.9Z"/>
  <path class="cls-1" d="M49.3,561.3c-8.9,8.9-12.3,12.9-12.3,14.7,0,3.4,23.6,27,27,27s27-23.6,27-27-23.6-27-27-27-5.8,3.4-14.7,12.3Z"/>
  <path class="cls-1" d="M177.3,561.3c-8.9,8.9-12.3,12.9-12.3,14.7,0,3.4,23.6,27,27,27s27-23.6,27-27-23.6-27-27-27-5.8,3.4-14.7,12.3Z"/>
  <path class="cls-1" d="M305.3,561.3c-8.9,8.9-12.3,12.9-12.3,14.7,0,3.4,23.6,27,27,27s27-23.6,27-27-23.6-27-27-27-5.8,3.4-14.7,12.3Z"/>
  <path class="cls-1" d="M433.3,561.3c-8.9,8.9-12.3,12.9-12.3,14.7,0,3.4,23.6,27,27,27s27-23.6,27-27-23.6-27-27-27-5.8,3.4-14.7,12.3Z"/>
  <path class="cls-1" d="M561.3,561.3c-8.9,8.9-12.3,12.9-12.3,14.7s3.4,5.8,12.3,14.7,12.9,12.3,14.7,12.3,5.8-3.4,14.7-12.3,12.3-12.9,12.3-14.7-3.4-5.8-12.3-14.7-12.9-12.3-14.7-12.3-5.8,3.4-14.7,12.3Z"/>
  <path class="cls-1" d="M689.3,561.3c-8.9,8.9-12.3,12.9-12.3,14.7s3.4,5.8,12.3,14.7,12.9,12.3,14.7,12.3,5.8-3.4,14.7-12.3,12.3-12.9,12.3-14.7-3.4-5.8-12.3-14.7-12.9-12.3-14.7-12.3-5.8,3.4-14.7,12.3Z"/>
  <path class="cls-1" d="M817.3,561.3c-8.9,8.9-12.3,12.9-12.3,14.7s3.4,5.8,12.3,14.7,12.9,12.3,14.7,12.3,5.8-3.4,14.7-12.3,12.3-12.9,12.3-14.7-3.4-5.8-12.3-14.7-12.9-12.3-14.7-12.3-5.8,3.4-14.7,12.3Z"/>
  <path class="cls-1" d="M945.3,561.3c-8.9,8.9-12.3,12.9-12.3,14.7s3.4,5.8,12.3,14.7,12.9,12.3,14.7,12.3,5.8-3.4,14.7-12.3,12.3-12.9,12.3-14.7-3.4-5.8-12.3-14.7-12.9-12.3-14.7-12.3-5.8,3.4-14.7,12.3Z"/>
  <path class="cls-1" d="M1073.3,561.3c-8.9,8.9-12.3,12.9-12.3,14.7,0,3.4,23.6,27,27,27s27-23.6,27-27-23.6-27-27-27-5.8,3.4-14.7,12.3Z"/>
  <path class="cls-1" d="M1201.3,561.3c-8.9,8.9-12.3,12.9-12.3,14.7,0,3.4,23.6,27,27,27s27-23.6,27-27-23.6-27-27-27-5.8,3.4-14.7,12.3Z"/>
  <path class="cls-1" d="M0,640c0,29.5.1,32,1.7,32s8.2-6.4,16-14.3c18.8-18.8,18.8-16.6,0-35.4-7.8-7.9-15-14.3-16-14.3-1.6,0-1.7,2.5-1.7,32Z"/>
  <path class="cls-1" d="M110.3,622.3c-12.8,12.8-14.3,14.6-14.3,17.7s1.5,4.9,14.3,17.7,14.6,14.3,17.7,14.3,4.9-1.5,17.7-14.3,14.3-14.6,14.3-17.7-1.5-4.9-14.3-17.7-14.6-14.3-17.7-14.3-4.9,1.5-17.7,14.3Z"/>
  <path class="cls-1" d="M238.3,622.3c-12.8,12.8-14.3,14.6-14.3,17.7s1.5,4.9,14.3,17.7,14.6,14.3,17.7,14.3,4.9-1.5,17.7-14.3,14.3-14.6,14.3-17.7-1.5-4.9-14.3-17.7-14.6-14.3-17.7-14.3-4.9,1.5-17.7,14.3Z"/>
  <path class="cls-1" d="M366.3,622.3c-12.8,12.8-14.3,14.6-14.3,17.7s1.5,4.9,14.3,17.7,14.6,14.3,17.7,14.3,4.9-1.5,17.7-14.3,14.3-14.6,14.3-17.7-1.5-4.9-14.3-17.7-14.6-14.3-17.7-14.3-4.9,1.5-17.7,14.3Z"/>
  <path class="cls-1" d="M494.3,622.3c-12.8,12.8-14.3,14.6-14.3,17.7s1.5,4.9,14.3,17.7,14.6,14.3,17.7,14.3,4.9-1.5,17.7-14.3c18.8-18.8,18.8-16.6,0-35.4s-14.6-14.3-17.7-14.3-4.9,1.5-17.7,14.3Z"/>
  <path class="cls-1" d="M622.3,622.3c-18.8,18.8-18.8,16.6,0,35.4s14.6,14.3,17.7,14.3,4.9-1.5,17.7-14.3c18.8-18.8,18.8-16.6,0-35.4s-14.6-14.3-17.7-14.3-4.9,1.5-17.7,14.3Z"/>
  <path class="cls-1" d="M750.3,622.3c-18.8,18.8-18.8,16.6,0,35.4s14.6,14.3,17.7,14.3,4.9-1.5,17.7-14.3c18.8-18.8,18.8-16.6,0-35.4s-14.6-14.3-17.7-14.3-4.9,1.5-17.7,14.3Z"/>
  <path class="cls-1" d="M878.3,622.3c-18.8,18.8-18.8,16.6,0,35.4s14.6,14.3,17.7,14.3,4.9-1.5,17.7-14.3c18.8-18.8,18.8-16.6,0-35.4s-14.6-14.3-17.7-14.3-4.9,1.5-17.7,14.3Z"/>
  <path class="cls-1" d="M1006.3,622.3c-18.8,18.8-18.8,16.6,0,35.4s14.6,14.3,17.7,14.3,4.9-1.5,17.7-14.3,14.3-14.6,14.3-17.7-1.5-4.9-14.3-17.7-14.6-14.3-17.7-14.3-4.9,1.5-17.7,14.3Z"/>
  <path class="cls-1" d="M1134.3,622.3c-12.8,12.8-14.3,14.6-14.3,17.7s1.5,4.9,14.3,17.7,14.6,14.3,17.7,14.3,4.9-1.5,17.7-14.3,14.3-14.6,14.3-17.7-1.5-4.9-14.3-17.7-14.6-14.3-17.7-14.3-4.9,1.5-17.7,14.3Z"/>
  <path class="cls-1" d="M1262.3,622.3c-12.8,12.8-14.3,14.6-14.3,17.7s1.5,4.9,14.3,17.7c7.8,7.9,15,14.3,16,14.3,1.6,0,1.7-2.5,1.7-32s-.1-32-1.7-32-8.2,6.4-16,14.3Z"/>
  <path class="cls-1" d="M46.8,686.8c-18.2,18.2-18.2,16.2,0,34.4,12.3,12.4,14.1,13.8,17.2,13.8s4.9-1.4,17.2-13.8c12.4-12.3,13.8-14.1,13.8-17.2s-1.4-4.9-13.8-17.2c-12.3-12.4-14.1-13.8-17.2-13.8s-4.9,1.4-17.2,13.8Z"/>
  <path class="cls-1" d="M174.8,686.8c-12.4,12.3-13.8,14.1-13.8,17.2s1.4,4.9,13.8,17.2c12.3,12.4,14.1,13.8,17.2,13.8s4.9-1.4,17.2-13.8c12.4-12.3,13.8-14.1,13.8-17.2s-1.4-4.9-13.8-17.2c-12.3-12.4-14.1-13.8-17.2-13.8s-4.9,1.4-17.2,13.8Z"/>
  <path class="cls-1" d="M302.8,686.8c-12.4,12.3-13.8,14.1-13.8,17.2s1.4,4.9,13.8,17.2c12.3,12.4,14.1,13.8,17.2,13.8s4.9-1.4,17.2-13.8c12.4-12.3,13.8-14.1,13.8-17.2s-1.4-4.9-13.8-17.2c-12.3-12.4-14.1-13.8-17.2-13.8s-4.9,1.4-17.2,13.8Z"/>
  <path class="cls-1" d="M430.8,686.8c-12.4,12.3-13.8,14.1-13.8,17.2s1.4,4.9,13.8,17.2c12.3,12.4,14.1,13.8,17.2,13.8s4.9-1.4,17.2-13.8c12.4-12.3,13.8-14.1,13.8-17.2s-1.4-4.9-13.8-17.2c-12.3-12.4-14.1-13.8-17.2-13.8s-4.9,1.4-17.2,13.8Z"/>
  <path class="cls-1" d="M558.8,686.8c-12.4,12.3-13.8,14.1-13.8,17.2s1.4,4.9,13.8,17.2c12.3,12.4,14.1,13.8,17.2,13.8s4.9-1.4,17.2-13.8c12.4-12.3,13.8-14.1,13.8-17.2s-1.4-4.9-13.8-17.2c-12.3-12.4-14.1-13.8-17.2-13.8s-4.9,1.4-17.2,13.8Z"/>
  <path class="cls-1" d="M686.8,686.8c-12.4,12.3-13.8,14.1-13.8,17.2s1.4,4.9,13.8,17.2c12.3,12.4,14.1,13.8,17.2,13.8s4.9-1.4,17.2-13.8c12.4-12.3,13.8-14.1,13.8-17.2s-1.4-4.9-13.8-17.2c-12.3-12.4-14.1-13.8-17.2-13.8s-4.9,1.4-17.2,13.8Z"/>
  <path class="cls-1" d="M814.8,686.8c-12.4,12.3-13.8,14.1-13.8,17.2s1.4,4.9,13.8,17.2c12.3,12.4,14.1,13.8,17.2,13.8s4.9-1.4,17.2-13.8c12.4-12.3,13.8-14.1,13.8-17.2s-1.4-4.9-13.8-17.2c-12.3-12.4-14.1-13.8-17.2-13.8s-4.9,1.4-17.2,13.8Z"/>
  <path class="cls-1" d="M942.8,686.8c-12.4,12.3-13.8,14.1-13.8,17.2s1.4,4.9,13.8,17.2c12.3,12.4,14.1,13.8,17.2,13.8s4.9-1.4,17.2-13.8c12.4-12.3,13.8-14.1,13.8-17.2s-1.4-4.9-13.8-17.2c-12.3-12.4-14.1-13.8-17.2-13.8s-4.9,1.4-17.2,13.8Z"/>
  <path class="cls-1" d="M1070.8,686.8c-12.4,12.3-13.8,14.1-13.8,17.2s1.4,4.9,13.8,17.2c12.3,12.4,14.1,13.8,17.2,13.8s4.9-1.4,17.2-13.8c12.4-12.3,13.8-14.1,13.8-17.2s-1.4-4.9-13.8-17.2c-12.3-12.4-14.1-13.8-17.2-13.8s-4.9,1.4-17.2,13.8Z"/>
  <path class="cls-1" d="M1198.8,686.8c-12.4,12.3-13.8,14.1-13.8,17.2s1.4,4.9,13.8,17.2c12.3,12.4,14.1,13.8,17.2,13.8s4.9-1.4,17.2-13.8c12.4-12.3,13.8-14.1,13.8-17.2s-1.4-4.9-13.8-17.2c-12.3-12.4-14.1-13.8-17.2-13.8s-4.9,1.4-17.2,13.8Z"/>
  <path class="cls-1" d="M0,768v37.1l2.3-.6c3.4-1,33.5-31.4,34.2-34.5.3-1.5.2-3.7-.3-5.1-.6-1.3-6.8-8.3-13.8-15.4-15.1-15.2-17.1-17-20.1-18l-2.3-.6v37.1Z"/>
  <path class="cls-1" d="M124.1,732.1c-2.7,1.1-28.9,26.9-31.6,31.1-3.4,5.5-1.9,7.9,15.5,25.3,21.4,21.3,18.6,21.3,40,0,16.2-16.2,18-18.8,16.1-23.7-1.3-3.3-29.3-31.5-32.6-32.8-3.1-1.2-4.2-1.2-7.4.1Z"/>
  <path class="cls-1" d="M252.1,732.1c-2.7,1.1-28.9,26.9-31.6,31.1-3.4,5.5-1.9,7.9,15.5,25.3,21.4,21.3,18.6,21.3,40,0,16.2-16.2,18-18.8,16.1-23.7-1.3-3.3-29.3-31.5-32.6-32.8-3.1-1.2-4.2-1.2-7.4.1Z"/>
  <path class="cls-1" d="M380.1,732.1c-2.7,1.1-28.9,26.9-31.6,31.1-3.4,5.5-1.9,7.9,15.5,25.3,21.4,21.3,18.6,21.3,40,0,16.2-16.2,18-18.8,16.1-23.7-1.3-3.3-29.3-31.5-32.6-32.8-3.1-1.2-4.2-1.2-7.4.1Z"/>
  <path class="cls-1" d="M508.1,732.1c-2.7,1.1-28.9,26.9-31.6,31.1-3.4,5.5-1.9,7.9,15.5,25.3,21.4,21.3,18.6,21.3,40,0,16.2-16.2,18-18.8,16.1-23.7-1.3-3.3-29.3-31.5-32.6-32.8-3.1-1.2-4.2-1.2-7.4.1Z"/>
  <path class="cls-1" d="M636.1,732.1c-2.7,1.1-28.9,26.9-31.6,31.1-3.4,5.5-1.9,7.9,15.5,25.3,21.4,21.3,18.6,21.3,40,0,16.2-16.2,18-18.8,16.1-23.7-1.3-3.3-29.3-31.5-32.6-32.8-3.1-1.2-4.2-1.2-7.4.1Z"/>
  <path class="cls-1" d="M764.1,732.1c-2.7,1.1-28.9,26.9-31.6,31.1-3.4,5.5-1.9,7.9,15.5,25.3,21.4,21.3,18.6,21.3,40,0,16.2-16.2,18-18.8,16.1-23.7-1.3-3.3-29.3-31.5-32.6-32.8-3.1-1.2-4.2-1.2-7.4.1Z"/>
  <path class="cls-1" d="M892.1,732.1c-2.7,1.1-28.9,26.9-31.6,31.1-3.4,5.5-1.9,7.9,15.5,25.3,21.4,21.3,18.6,21.3,40,0,16.2-16.2,18-18.8,16.1-23.7-1.3-3.3-29.3-31.5-32.6-32.8-3.1-1.2-4.2-1.2-7.4.1Z"/>
  <path class="cls-1" d="M1020.1,732.1c-2.7,1.1-28.9,26.9-31.6,31.1-3.4,5.5-1.9,7.9,15.5,25.3,21.4,21.3,18.6,21.3,40,0,16.2-16.2,18-18.8,16.1-23.7-1.3-3.3-29.3-31.5-32.6-32.8-3.1-1.2-4.2-1.2-7.4.1Z"/>
  <path class="cls-1" d="M1148.1,732.1c-2.7,1.1-28.9,26.9-31.6,31.1-3.4,5.5-1.9,7.9,15.5,25.3,21.4,21.3,18.6,21.3,40,0,16.2-16.2,18-18.8,16.1-23.7-1.3-3.3-29.3-31.5-32.6-32.8-3.1-1.2-4.2-1.2-7.4.1Z"/>
  <path class="cls-1" d="M1276.1,732.1c-2.7,1.1-28.9,26.9-31.6,31.1-3.4,5.5-1.9,7.9,15.3,25,8.6,8.6,16.7,15.9,18,16.3l2.2.6v-37c0-20.4-.3-37.1-.7-37-.5,0-1.9.5-3.2,1Z"/>
  <path class="cls-1" d="M58.5,798.9c-5.2,3.2-28.3,27.4-29,30.4-1.4,5.3.4,8,14.8,22.4s17.1,16.2,22.4,14.8c3.7-.9,30.9-28.1,31.8-31.8,1.3-5.2-.5-8-13.8-21.5-16.8-17-19.5-18.5-26.2-14.3Z"/>
  <path class="cls-1" d="M186.5,798.9c-5.2,3.2-28.3,27.4-29,30.4-1.4,5.3.4,8,14.8,22.4s17.1,16.2,22.5,14.8c3.6-.9,30.8-28.1,31.7-31.8,1.3-5.2-.5-8-13.8-21.5-16.8-17-19.5-18.5-26.2-14.3Z"/>
  <path class="cls-1" d="M314.5,798.9c-5.2,3.2-28.3,27.4-29,30.4-1.4,5.3.4,8,14.8,22.4s17.1,16.2,22.5,14.8c3.6-.9,30.8-28.1,31.7-31.8,1.3-5.2-.5-8-13.8-21.5-16.8-17-19.5-18.5-26.2-14.3Z"/>
  <path class="cls-1" d="M442.5,798.9c-5.2,3.2-28.3,27.4-29,30.4-1.4,5.3.4,8,14.8,22.4s17.1,16.2,22.5,14.8c3.6-.9,30.8-28.1,31.7-31.8,1.3-5.2-.5-8-13.8-21.5-16.8-17-19.5-18.5-26.2-14.3Z"/>
  <path class="cls-1" d="M570.5,798.9c-5.2,3.2-28.3,27.4-29,30.4-1.4,5.3.4,8,14.8,22.4s17.1,16.2,22.5,14.8c3.6-.9,30.8-28.1,31.7-31.8,1.3-5.2-.5-8-13.8-21.5-16.8-17-19.5-18.5-26.2-14.3Z"/>
  <path class="cls-1" d="M698.5,798.9c-5.2,3.2-28.3,27.4-29,30.4-1.4,5.3.4,8,14.8,22.4s17.1,16.2,22.5,14.8c3.6-.9,30.8-28.1,31.7-31.8,1.3-5.2-.5-8-13.8-21.5-16.8-17-19.5-18.5-26.2-14.3Z"/>
  <path class="cls-1" d="M826.5,798.9c-5.2,3.2-28.3,27.4-29,30.4-1.4,5.3.4,8,14.8,22.4s17.1,16.2,22.5,14.8c3.6-.9,30.8-28.1,31.7-31.8,1.3-5.2-.5-8-13.8-21.5-16.8-17-19.5-18.5-26.2-14.3Z"/>
  <path class="cls-1" d="M954.5,798.9c-5.2,3.2-28.3,27.4-29,30.4-1.4,5.3.4,8,14.8,22.4s17.1,16.2,22.5,14.8c3.6-.9,30.8-28.1,31.7-31.8,1.3-5.2-.5-8-13.8-21.5-16.8-17-19.5-18.5-26.2-14.3Z"/>
  <path class="cls-1" d="M1082.5,798.9c-5.2,3.2-28.3,27.4-29,30.4-1.4,5.3.4,8,14.8,22.4s17.1,16.2,22.5,14.8c3.6-.9,30.8-28.1,31.7-31.8,1.3-5.2-.5-8-13.8-21.5-16.8-17-19.5-18.5-26.2-14.3Z"/>
  <path class="cls-1" d="M1210.5,798.9c-5.2,3.2-28.3,27.4-29,30.4-1.4,5.3.4,8,14.8,22.4s17.1,16.2,22.5,14.8c3.6-.9,30.8-28.1,31.7-31.8,1.3-5.2-.5-8-13.8-21.5-16.8-17-19.5-18.5-26.2-14.3Z"/>
  <path class="cls-1" d="M0,896c0,39.2.1,41,1.8,41,3,0,8.8-4.9,22.8-19.1,15.2-15.5,16.4-17.1,16.4-21.9s-1.2-6.4-16.4-21.9c-14-14.2-19.8-19.1-22.8-19.1s-1.8,1.8-1.8,41Z"/>
  <path class="cls-1" d="M120.4,857.9c-4.5,3.4-29.3,28.4-31.8,32.1-.9,1.3-1.6,4-1.6,6s.7,4.7,1.6,6c2.5,3.7,27.3,28.7,31.8,32.1,5.2,3.9,10,3.9,15.2,0,4.5-3.4,29.3-28.4,31.8-32.1,2.5-3.8,2-9.1-1.3-13.6-3.4-4.5-28.4-29.3-32.1-31.8-3.8-2.5-9.1-2-13.6,1.3Z"/>
  <path class="cls-1" d="M248.4,857.9c-4.5,3.4-29.3,28.4-31.8,32.1-.9,1.3-1.6,4-1.6,6s.7,4.7,1.6,6c2.5,3.7,27.3,28.7,31.8,32.1,5.2,3.9,10,3.9,15.2,0,4.5-3.4,29.3-28.4,31.8-32.1,2.5-3.8,2-9.1-1.3-13.6-3.4-4.5-28.4-29.3-32.1-31.8-3.8-2.5-9.1-2-13.6,1.3Z"/>
  <path class="cls-1" d="M376.4,857.9c-4.5,3.4-29.3,28.4-31.8,32.1-.9,1.3-1.6,4-1.6,6s.7,4.7,1.6,6c2.5,3.7,27.3,28.7,31.8,32.1,5.2,3.9,10,3.9,15.2,0,4.5-3.4,29.3-28.4,31.8-32.1,2.5-3.8,2-9.1-1.3-13.6-3.4-4.5-28.4-29.3-32.1-31.8-3.8-2.5-9.1-2-13.6,1.3Z"/>
  <path class="cls-1" d="M504.4,857.9c-4.5,3.4-29.3,28.4-31.8,32.1-.9,1.3-1.6,4-1.6,6s.7,4.7,1.6,6c2.5,3.7,27.3,28.7,31.8,32.1,5.2,3.9,10,3.9,15.2,0,4.5-3.4,29.3-28.4,31.8-32.1,2.5-3.8,2-9.1-1.3-13.6-3.4-4.5-28.4-29.3-32.1-31.8-3.8-2.5-9.1-2-13.6,1.3Z"/>
  <path class="cls-1" d="M632.4,857.9c-4.5,3.4-29.3,28.4-31.8,32.1-.9,1.3-1.6,4-1.6,6s.7,4.7,1.6,6c2.5,3.7,27.3,28.7,31.8,32.1,5.2,3.9,10,3.9,15.2,0,4.5-3.4,29.3-28.4,31.8-32.1,2.5-3.8,2-9.1-1.3-13.6-3.4-4.5-28.4-29.3-32.1-31.8-3.8-2.5-9.1-2-13.6,1.3Z"/>
  <path class="cls-1" d="M760.4,857.9c-4.5,3.4-29.3,28.4-31.8,32.1-.9,1.3-1.6,4-1.6,6s.7,4.7,1.6,6c2.5,3.7,27.3,28.7,31.8,32.1,5.2,3.9,10,3.9,15.2,0,4.5-3.4,29.3-28.4,31.8-32.1,2.5-3.8,2-9.1-1.3-13.6-3.4-4.5-28.4-29.3-32.1-31.8-3.8-2.5-9.1-2-13.6,1.3Z"/>
  <path class="cls-1" d="M888.4,857.9c-4.5,3.4-29.3,28.4-31.8,32.1-.9,1.3-1.6,4-1.6,6s.7,4.7,1.6,6c2.5,3.7,27.3,28.7,31.8,32.1,5.2,3.9,10,3.9,15.2,0,4.5-3.4,29.3-28.4,31.8-32.1,2.5-3.8,2-9.1-1.3-13.6-3.4-4.5-28.4-29.3-32.1-31.8-3.8-2.5-9.1-2-13.6,1.3Z"/>
  <path class="cls-1" d="M1016.4,857.9c-4.5,3.4-29.3,28.4-31.8,32.1-.9,1.3-1.6,4-1.6,6s.7,4.7,1.6,6c2.5,3.7,27.3,28.7,31.8,32.1,5.2,3.9,10,3.9,15.2,0,4.5-3.4,29.3-28.4,31.8-32.1,2.5-3.8,2-9.1-1.3-13.6-3.4-4.5-28.4-29.3-32.1-31.8-3.8-2.5-9.1-2-13.6,1.3Z"/>
  <path class="cls-1" d="M1144.4,857.9c-4.5,3.4-29.3,28.4-31.8,32.1-.9,1.3-1.6,4-1.6,6s.7,4.7,1.6,6c2.5,3.7,27.3,28.7,31.8,32.1,5.2,3.9,10,3.9,15.2,0,4.5-3.4,29.3-28.4,31.8-32.1,2.5-3.8,2-9.1-1.3-13.6-3.4-4.5-28.4-29.3-32.1-31.8-3.8-2.5-9.1-2-13.6,1.3Z"/>
  <path class="cls-1" d="M1272.4,857.9c-4.5,3.4-29.3,28.4-31.8,32.1-.9,1.3-1.6,4-1.6,6,0,4.8,1.2,6.4,16.4,21.9,14,14.2,19.8,19.1,22.8,19.1s1.8-1.8,1.8-41-.1-41-1.8-41-3.7,1.3-5.8,2.9Z"/>
  <path class="cls-1" d="M42.3,938.3c-23.3,23.3-23.3,20.1,0,43.4s17.3,17.3,21.7,17.3,4.5-.1,21.7-17.3,23.3-20.1,0-43.4-17.3-17.3-21.7-17.3-4.5.1-21.7,17.3Z"/>
  <path class="cls-1" d="M170.3,938.3c-17.2,17.2-17.3,17.3-17.3,21.7s.1,4.5,17.3,21.7,17.3,17.3,21.7,17.3,4.5-.1,21.7-17.3,23.3-20.1,0-43.4-17.3-17.3-21.7-17.3-4.5.1-21.7,17.3Z"/>
  <path class="cls-1" d="M298.3,938.3c-17.2,17.2-17.3,17.3-17.3,21.7s.1,4.5,17.3,21.7,17.3,17.3,21.7,17.3,4.5-.1,21.7-17.3,17.3-17.3,17.3-21.7-.1-4.5-17.3-21.7-17.3-17.3-21.7-17.3-4.5.1-21.7,17.3Z"/>
  <path class="cls-1" d="M426.3,938.3c-17.2,17.2-17.3,17.3-17.3,21.7s.1,4.5,17.3,21.7,17.3,17.3,21.7,17.3,4.5-.1,21.7-17.3,17.3-17.3,17.3-21.7-.1-4.5-17.3-21.7-17.3-17.3-21.7-17.3-4.5.1-21.7,17.3Z"/>
  <path class="cls-1" d="M554.3,938.3c-17.2,17.2-17.3,17.3-17.3,21.7s.1,4.5,17.3,21.7,17.3,17.3,21.7,17.3,4.5-.1,21.7-17.3,17.3-17.3,17.3-21.7-.1-4.5-17.3-21.7-17.3-17.3-21.7-17.3-4.5.1-21.7,17.3Z"/>
  <path class="cls-1" d="M682.3,938.3c-17.2,17.2-17.3,17.3-17.3,21.7s.1,4.5,17.3,21.7,17.3,17.3,21.7,17.3,4.5-.1,21.7-17.3,17.3-17.3,17.3-21.7-.1-4.5-17.3-21.7-17.3-17.3-21.7-17.3-4.5.1-21.7,17.3Z"/>
  <path class="cls-1" d="M810.3,938.3c-17.2,17.2-17.3,17.3-17.3,21.7s.1,4.5,17.3,21.7,17.3,17.3,21.7,17.3,4.5-.1,21.7-17.3,17.3-17.3,17.3-21.7-.1-4.5-17.3-21.7-17.3-17.3-21.7-17.3-4.5.1-21.7,17.3Z"/>
  <path class="cls-1" d="M938.3,938.3c-17.2,17.2-17.3,17.3-17.3,21.7s.1,4.5,17.3,21.7,17.3,17.3,21.7,17.3,4.5-.1,21.7-17.3,17.3-17.3,17.3-21.7-.1-4.5-17.3-21.7-17.3-17.3-21.7-17.3-4.5.1-21.7,17.3Z"/>
  <path class="cls-1" d="M1066.3,938.3c-17.2,17.2-17.3,17.3-17.3,21.7s.1,4.5,17.3,21.7,17.3,17.3,21.7,17.3,4.5-.1,21.7-17.3,17.3-17.3,17.3-21.7-.1-4.5-17.3-21.7-17.3-17.3-21.7-17.3-4.5.1-21.7,17.3Z"/>
  <path class="cls-1" d="M1194.3,938.3c-17.2,17.2-17.3,17.3-17.3,21.7s.1,4.5,17.3,21.7,17.3,17.3,21.7,17.3,4.5-.1,21.7-17.3,17.3-17.3,17.3-21.7-.1-4.5-17.3-21.7-17.3-17.3-21.7-17.3-4.5.1-21.7,17.3Z"/>
  <path class="cls-1" d="M0,1024c0,32.8.3,46,1.1,46,3.5,0,9.6-5.1,25.7-21.3,25.3-25.8,25.3-23.7-.1-49.4-16.1-16.3-22.1-21.3-25.6-21.3s-1.1,13.2-1.1,46Z"/>
  <path class="cls-1" d="M122.4,979.6c-1.7.8-11.2,9.7-21.1,19.7-25.6,25.9-25.7,23.6,1.1,50.3,26.8,26.9,24.4,26.9,51.2,0,26.8-26.7,26.7-24.5,1.1-50.3-21.5-21.7-24.5-23.6-32.3-19.7Z"/>
  <path class="cls-1" d="M250.4,979.6c-1.7.8-11.2,9.7-21.1,19.7-25.6,25.9-25.7,23.6,1.1,50.3,26.8,26.9,24.4,26.9,51.2,0,26.8-26.7,26.7-24.5,1.1-50.3-21.5-21.7-24.5-23.6-32.3-19.7Z"/>
  <path class="cls-1" d="M378.4,979.6c-1.7.8-11.2,9.7-21.1,19.7-25.6,25.9-25.7,23.6,1.1,50.3,26.8,26.9,24.4,26.9,51.2,0,26.8-26.7,26.7-24.5,1.1-50.3-21.5-21.7-24.5-23.6-32.3-19.7Z"/>
  <path class="cls-1" d="M506.4,979.6c-1.7.8-11.2,9.7-21.1,19.7-25.6,25.9-25.7,23.6,1.1,50.3,26.8,26.9,24.4,26.9,51.2,0,26.8-26.7,26.7-24.5,1.1-50.3-21.5-21.7-24.5-23.6-32.3-19.7Z"/>
  <path class="cls-1" d="M634.4,979.6c-1.7.8-11.2,9.7-21.1,19.7-25.6,25.9-25.7,23.6,1.1,50.3,26.8,26.9,24.4,26.9,51.2,0,26.8-26.7,26.7-24.5,1.1-50.3-21.5-21.7-24.5-23.6-32.3-19.7Z"/>
  <path class="cls-1" d="M762.4,979.6c-1.7.8-11.2,9.7-21.1,19.7-25.6,25.9-25.7,23.6,1.1,50.3,26.8,26.9,24.4,26.9,51.2,0,26.8-26.7,26.7-24.5,1.1-50.3-21.5-21.7-24.5-23.6-32.3-19.7Z"/>
  <path class="cls-1" d="M890.4,979.6c-1.7.8-11.2,9.7-21.1,19.7-25.6,25.9-25.7,23.6,1.1,50.3,26.8,26.9,24.4,26.9,51.2,0,26.8-26.7,26.7-24.5,1.1-50.3-21.5-21.7-24.5-23.6-32.3-19.7Z"/>
  <path class="cls-1" d="M1018.4,979.6c-1.7.8-11.2,9.7-21.1,19.7-25.6,25.9-25.7,23.6,1.1,50.3,26.8,26.9,24.4,26.9,51.2,0,26.8-26.7,26.7-24.5,1.1-50.3-21.5-21.7-24.5-23.6-32.3-19.7Z"/>
  <path class="cls-1" d="M1146.4,979.6c-1.7.8-11.2,9.7-21.1,19.7-25.6,25.9-25.7,23.6,1.1,50.3,26.8,26.9,24.4,26.9,51.2,0,26.8-26.7,26.7-24.5,1.1-50.3-21.5-21.7-24.5-23.6-32.3-19.7Z"/>
  <path class="cls-1" d="M1274.4,979.6c-1.7.8-11.2,9.7-21.1,19.7-25.5,25.7-25.5,23.7,0,49.4,16.1,16.3,22.1,21.3,25.6,21.3s1.1-13.2,1.1-46-.3-46-1.2-46-2.7.7-4.4,1.6Z"/>
  <path class="cls-1" d="M57.5,1046.9c-1.6,1-10.5,9.4-19.6,18.7-17.8,18.2-18.9,19.9-16.3,26.4,1.6,3.8,32.2,35.2,36.6,37.6,3.2,1.7,8.1,1.8,11.1.3,3.1-1.6,34.6-32.9,36.3-36.1s1.8-8.1.3-11.1c-1.6-3.1-32.9-34.6-36.1-36.3-3.7-1.9-8.7-1.8-12.3.5Z"/>
  <path class="cls-1" d="M185.5,1046.9c-1.6,1-10.5,9.4-19.6,18.7-17.8,18.2-18.9,19.9-16.3,26.4,1.6,3.8,32.2,35.2,36.6,37.6,3.2,1.7,8.1,1.8,11.1.3,3.1-1.6,34.6-32.9,36.3-36.1s1.8-8.1.3-11.1c-1.6-3.1-32.9-34.6-36.1-36.3-3.7-1.9-8.7-1.8-12.3.5Z"/>
  <path class="cls-1" d="M313.5,1046.9c-1.6,1-10.5,9.4-19.6,18.7-17.8,18.2-18.9,19.9-16.3,26.4,1.6,3.8,32.2,35.2,36.6,37.6,3.2,1.7,8.1,1.8,11.1.3,3.1-1.6,34.6-32.9,36.3-36.1s1.8-8.1.3-11.1c-1.6-3.1-32.9-34.6-36.1-36.3-3.7-1.9-8.7-1.8-12.3.5Z"/>
  <path class="cls-1" d="M441.5,1046.9c-1.6,1-10.5,9.4-19.6,18.7-17.8,18.2-18.9,19.9-16.3,26.4,1.6,3.8,32.2,35.2,36.6,37.6,3.2,1.7,8.1,1.8,11.1.3,3.1-1.6,34.6-32.9,36.3-36.1s1.8-8.1.3-11.1c-1.6-3.1-32.9-34.6-36.1-36.3-3.7-1.9-8.7-1.8-12.3.5Z"/>
  <path class="cls-1" d="M569.5,1046.9c-1.6,1-10.5,9.4-19.6,18.7-17.8,18.2-18.9,19.9-16.3,26.4,1.6,3.8,32.2,35.2,36.6,37.6,3.2,1.7,8.1,1.8,11.1.3,3.1-1.6,34.6-32.9,36.3-36.1s1.8-8.1.3-11.1c-1.6-3.1-32.9-34.6-36.1-36.3-3.7-1.9-8.7-1.8-12.3.5Z"/>
  <path class="cls-1" d="M697.5,1046.9c-1.6,1-10.5,9.4-19.6,18.7-17.8,18.2-18.9,19.9-16.3,26.4,1.6,3.8,32.2,35.2,36.6,37.6,3.2,1.7,8.1,1.8,11.1.3,3.1-1.6,34.6-32.9,36.3-36.1s1.8-8.1.3-11.1c-1.6-3.1-32.9-34.6-36.1-36.3-3.7-1.9-8.7-1.8-12.3.5Z"/>
  <path class="cls-1" d="M825.5,1046.9c-1.6,1-10.5,9.4-19.6,18.7-17.8,18.2-18.9,19.9-16.3,26.4,1.6,3.8,32.2,35.2,36.6,37.6,3.2,1.7,8.1,1.8,11.1.3,3.1-1.6,34.6-32.9,36.3-36.1s1.8-8.1.3-11.1c-1.6-3.1-32.9-34.6-36.1-36.3-3.7-1.9-8.7-1.8-12.3.5Z"/>
  <path class="cls-1" d="M953.5,1046.9c-1.6,1-10.5,9.4-19.6,18.7-17.8,18.2-18.9,19.9-16.3,26.4,1.6,3.8,32.2,35.2,36.6,37.6,3.2,1.7,8.1,1.8,11.1.3,3.1-1.6,34.6-32.9,36.3-36.1s1.8-8.1.3-11.1c-1.6-3.1-32.9-34.6-36.1-36.3-3.7-1.9-8.7-1.8-12.3.5Z"/>
  <path class="cls-1" d="M1081.5,1046.9c-1.6,1-10.5,9.4-19.6,18.7-17.8,18.2-18.9,19.9-16.3,26.4,1.6,3.8,32.2,35.2,36.6,37.6,3.2,1.7,8.1,1.8,11.1.3,3.1-1.6,34.6-32.9,36.3-36.1s1.8-8.1.3-11.1c-1.6-3.1-32.9-34.6-36.1-36.3-3.7-1.9-8.7-1.8-12.3.5Z"/>
  <path class="cls-1" d="M1209.5,1046.9c-1.6,1-10.5,9.4-19.6,18.7-17.8,18.2-18.9,19.9-16.3,26.4,1.6,3.8,32.2,35.2,36.6,37.6,3.2,1.7,8.1,1.8,11.1.3,3.1-1.6,34.6-32.9,36.3-36.1s1.8-8.1.3-11.1c-1.6-3.1-32.9-34.6-36.1-36.3-3.7-1.9-8.7-1.8-12.3.5Z"/>
  <path class="cls-1" d="M0,1152v51.1l2.3-.6c4.8-1.5,8.9-5,27.3-23.7,14-14.1,19.4-20.3,20.3-23.1,2.3-6.9.7-9.3-20.3-30.5-18.4-18.7-22.5-22.2-27.3-23.7l-2.3-.6v51.1Z"/>
  <path class="cls-1" d="M122.4,1103c-2.4,1.2-12,10.1-23.6,21.8-22.5,22.6-23.7,24.6-19.9,32.4,1.3,2.9,8.9,11.2,21.8,24,22.7,22.5,24.7,23.7,32.5,19.9,6.4-3,43.1-40.3,44.7-45.4,2.3-6.9.7-9.3-20.7-31-18.2-18.3-24.8-23.7-29.3-23.7s-3.2.9-5.5,2Z"/>
  <path class="cls-1" d="M250.4,1103c-2.4,1.2-12,10.1-23.6,21.8-22.5,22.6-23.7,24.6-19.9,32.4,1.3,2.9,8.9,11.2,21.8,24,22.7,22.5,24.7,23.7,32.5,19.9,6.4-3,43.1-40.3,44.7-45.4,2.3-6.9.7-9.3-20.7-31-18.2-18.3-24.8-23.7-29.3-23.7s-3.2.9-5.5,2Z"/>
  <path class="cls-1" d="M378.4,1103c-2.4,1.2-12,10.1-23.6,21.8-22.5,22.6-23.7,24.6-19.9,32.4,1.3,2.9,8.9,11.2,21.8,24,22.7,22.5,24.7,23.7,32.5,19.9,6.4-3,43.1-40.3,44.7-45.4,2.3-6.9.7-9.3-20.7-31-18.2-18.3-24.8-23.7-29.3-23.7s-3.2.9-5.5,2Z"/>
  <path class="cls-1" d="M506.4,1103c-2.4,1.2-12,10.1-23.6,21.8-22.5,22.6-23.7,24.6-19.9,32.4,1.3,2.9,8.9,11.2,21.8,24,22.7,22.5,24.7,23.7,32.5,19.9,6.4-3,43.1-40.3,44.7-45.4,2.3-6.9.7-9.3-20.7-31-18.2-18.3-24.8-23.7-29.3-23.7s-3.2.9-5.5,2Z"/>
  <path class="cls-1" d="M634.4,1103c-2.4,1.2-12,10.1-23.6,21.8-22.5,22.6-23.7,24.6-19.9,32.4,1.3,2.9,8.9,11.2,21.8,24,22.7,22.5,24.7,23.7,32.5,19.9,6.4-3,43.1-40.3,44.7-45.4,2.3-6.9.7-9.3-20.7-31-18.2-18.3-24.8-23.7-29.3-23.7s-3.2.9-5.5,2Z"/>
  <path class="cls-1" d="M762.4,1103c-2.4,1.2-12,10.1-23.6,21.8-22.5,22.6-23.7,24.6-19.9,32.4,1.3,2.9,8.9,11.2,21.8,24,22.7,22.5,24.7,23.7,32.5,19.9,6.4-3,43.1-40.3,44.7-45.4,2.3-6.9.7-9.3-20.7-31-18.2-18.3-24.8-23.7-29.3-23.7s-3.2.9-5.5,2Z"/>
  <path class="cls-1" d="M890.4,1103c-2.4,1.2-12,10.1-23.6,21.8-22.5,22.6-23.7,24.6-19.9,32.4,1.3,2.9,8.9,11.2,21.8,24,22.7,22.5,24.7,23.7,32.5,19.9,6.4-3,43.1-40.3,44.7-45.4,2.3-6.9.7-9.3-20.7-31-18.2-18.3-24.8-23.7-29.3-23.7s-3.2.9-5.5,2Z"/>
  <path class="cls-1" d="M1018.4,1103c-2.4,1.2-12,10.1-23.6,21.8-22.5,22.6-23.7,24.6-19.9,32.4,1.3,2.9,8.9,11.2,21.8,24,22.7,22.5,24.7,23.7,32.5,19.9,6.4-3,43.1-40.3,44.7-45.4,2.3-6.9.7-9.3-20.7-31-18.2-18.3-24.8-23.7-29.3-23.7s-3.2.9-5.5,2Z"/>
  <path class="cls-1" d="M1146.4,1103c-2.4,1.2-12,10.1-23.6,21.8-22.5,22.6-23.7,24.6-19.9,32.4,1.3,2.9,8.9,11.2,21.8,24,22.7,22.5,24.7,23.7,32.5,19.9,6.4-3,43.1-40.3,44.7-45.4,2.3-6.9.7-9.3-20.7-31-18.2-18.3-24.8-23.7-29.3-23.7s-3.2.9-5.5,2Z"/>
  <path class="cls-1" d="M1274.4,1103c-6.1,3-42.8,40.5-44.3,45.2-2.3,7-.7,9.4,20.3,30.6,18.4,18.7,22.5,22.2,27.4,23.7l2.2.6v-51c0-28.1-.3-51.1-.7-51.1s-2.6.9-4.9,2Z"/>
  <path class="cls-1" d="M59,1169.6c-4.8,2.1-39.5,37-41.5,41.8-2.9,7-2.1,8.3,19.8,30.3,13.4,13.6,21.2,20.6,23.4,21.4,6.1,2,8.6.2,30-21.4,21.8-22,22.7-23.3,19.8-30.3-2.1-5-36.8-39.8-41.8-41.9-4.4-1.8-5.3-1.8-9.7.1Z"/>
  <path class="cls-1" d="M187,1169.6c-4.8,2.1-39.5,37-41.5,41.8-2.9,7-2.1,8.3,19.8,30.3,21.4,21.6,23.9,23.4,30,21.4,2.2-.8,10-7.8,23.4-21.4,21.8-22,22.7-23.3,19.8-30.3-2.1-5-36.8-39.8-41.8-41.9-4.4-1.8-5.3-1.8-9.7.1Z"/>
  <path class="cls-1" d="M315,1169.6c-4.8,2.1-39.5,37-41.5,41.8-2.9,7-2.1,8.3,19.8,30.3,21.4,21.6,23.9,23.4,30,21.4,2.2-.8,10-7.8,23.4-21.4,21.8-22,22.7-23.3,19.8-30.3-2.1-5-36.8-39.8-41.8-41.9-4.4-1.8-5.3-1.8-9.7.1Z"/>
  <path class="cls-1" d="M443,1169.6c-4.8,2.1-39.5,37-41.5,41.8-2.9,7-2.1,8.3,19.8,30.3,21.4,21.6,23.9,23.4,30,21.4,2.2-.8,10-7.8,23.4-21.4,21.8-22,22.7-23.3,19.8-30.3-2.1-5-36.8-39.8-41.8-41.9-4.4-1.8-5.3-1.8-9.7.1Z"/>
  <path class="cls-1" d="M571,1169.6c-4.8,2.1-39.5,37-41.5,41.8-2.9,7-2.1,8.3,19.8,30.3,21.4,21.6,23.9,23.4,30,21.4,2.2-.8,10-7.8,23.4-21.4,21.8-22,22.7-23.3,19.8-30.3-2.1-5-36.8-39.8-41.8-41.9-4.4-1.8-5.3-1.8-9.7.1Z"/>
  <path class="cls-1" d="M699,1169.6c-4.8,2.1-39.5,37-41.5,41.8-2.9,7-2.1,8.3,19.8,30.3,21.4,21.6,23.9,23.4,30,21.4,2.2-.8,10-7.8,23.4-21.4,21.8-22,22.7-23.3,19.8-30.3-2.1-5-36.8-39.8-41.8-41.9-4.4-1.8-5.3-1.8-9.7.1Z"/>
  <path class="cls-1" d="M827,1169.6c-4.8,2.1-39.5,37-41.5,41.8-2.9,7-2.1,8.3,19.8,30.3,21.4,21.6,23.9,23.4,30,21.4,2.2-.8,10-7.8,23.4-21.4,21.8-22,22.7-23.3,19.8-30.3-2.1-5-36.8-39.8-41.8-41.9-4.4-1.8-5.3-1.8-9.7.1Z"/>
  <path class="cls-1" d="M955,1169.6c-4.8,2.1-39.5,37-41.5,41.8-2.9,7-2.1,8.3,19.8,30.3,21.4,21.6,23.9,23.4,30,21.4,2.2-.8,10-7.8,23.4-21.4,21.8-22,22.7-23.3,19.8-30.3-2.1-5-36.8-39.8-41.8-41.9-4.4-1.8-5.3-1.8-9.7.1Z"/>
  <path class="cls-1" d="M1083,1169.6c-4.8,2.1-39.5,37-41.5,41.8-2.9,7-2.1,8.3,19.8,30.3,21.4,21.6,23.9,23.4,30,21.4,2.2-.8,10-7.8,23.4-21.4,21.8-22,22.7-23.3,19.8-30.3-2.1-5-36.8-39.8-41.8-41.9-4.4-1.8-5.3-1.8-9.7.1Z"/>
  <path class="cls-1" d="M1211,1169.6c-4.8,2.1-39.5,37-41.5,41.8-2.9,7-2.1,8.3,19.8,30.3,21.4,21.6,23.9,23.4,30,21.4,2.2-.8,10-7.8,23.4-21.4,21.8-22,22.7-23.3,19.8-30.3-2.1-5-36.8-39.8-41.8-41.9-4.4-1.8-5.3-1.8-9.7.1Z"/>
  <path class="cls-1" d="M0,1252.5v27.5h27.5c30.4,0,29.2.3,26-6.4-2-4.2-44.2-46.2-47.8-47.5-6-2.3-5.7-3.6-5.7,26.4Z"/>
  <path class="cls-1" d="M121.5,1226.6c-4.2,2.1-45.2,43.2-47,47-3.2,6.9-7.4,6.4,53.5,6.4s56.8.5,53.5-6.4c-2-4.2-44.2-46.2-47.8-47.5-4-1.5-8.7-1.3-12.2.5Z"/>
  <path class="cls-1" d="M249.5,1226.6c-4.2,2.1-45.2,43.2-47,47-3.2,6.9-7.4,6.4,53.5,6.4s56.8.5,53.5-6.4c-2-4.2-44.2-46.2-47.8-47.5-4-1.5-8.7-1.3-12.2.5Z"/>
  <path class="cls-1" d="M377.5,1226.6c-4.2,2.1-45.2,43.2-47,47-3.2,6.9-7.4,6.4,53.5,6.4s56.8.5,53.5-6.4c-2-4.2-44.2-46.2-47.8-47.5-4-1.5-8.7-1.3-12.2.5Z"/>
  <path class="cls-1" d="M505.5,1226.6c-4.2,2.1-45.2,43.2-47,47-3.2,6.9-7.4,6.4,53.5,6.4s56.8.5,53.5-6.4c-2-4.2-44.2-46.2-47.8-47.5-4-1.5-8.7-1.3-12.2.5Z"/>
  <path class="cls-1" d="M633.5,1226.6c-4.2,2.1-45.2,43.2-47,47-3.2,6.9-7.4,6.4,53.5,6.4s56.8.5,53.5-6.4c-2-4.2-44.2-46.2-47.8-47.5-4-1.5-8.7-1.3-12.2.5Z"/>
  <path class="cls-1" d="M761.5,1226.6c-4.2,2.1-45.2,43.2-47,47-3.2,6.9-7.4,6.4,53.5,6.4s56.8.5,53.5-6.4c-2-4.2-44.2-46.2-47.8-47.5-4-1.5-8.7-1.3-12.2.5Z"/>
  <path class="cls-1" d="M889.5,1226.6c-4.2,2.1-45.2,43.2-47,47-3.2,6.9-7.4,6.4,53.5,6.4s56.8.5,53.5-6.4c-2-4.2-44.2-46.2-47.8-47.5-4-1.5-8.7-1.3-12.2.5Z"/>
  <path class="cls-1" d="M1017.5,1226.6c-4.2,2.1-45.2,43.2-47,47-3.2,6.9-7.4,6.4,53.5,6.4s56.8.5,53.5-6.4c-2-4.2-44.2-46.2-47.8-47.5-4-1.5-8.7-1.3-12.2.5Z"/>
  <path class="cls-1" d="M1145.5,1226.6c-4.2,2.1-45.2,43.2-47,47-3.2,6.9-7.4,6.4,53.5,6.4s56.8.5,53.5-6.4c-2-4.2-44.2-46.2-47.8-47.5-4-1.5-8.7-1.3-12.2.5Z"/>
  <path class="cls-1" d="M1273.5,1226.6c-4.2,2.1-45.2,43.2-47,47-3.2,6.7-4.4,6.4,26,6.4h27.5v-27.5c0-30.5.3-29.4-6.5-25.9Z"/>
</svg>